<svg xmlns:mydata="http://www.w3.org/2000/svg" mydata:contrastcolor="ffffff" mydata:template="Contrast" mydata:presentation="2.5" mydata:layouttype="undefined" mydata:specialfontid="undefined" mydata:id1="789" mydata:id2="789" mydata:companyname="Gestion Estudiantes" mydata:companytagline="" version="1.1" xmlns="http://www.w3.org/2000/svg" xmlns:xlink="http://www.w3.org/1999/xlink" style="height: 375px;" viewBox="0 0 550 470"><g fill="#000000" fill-rule="none" stroke="none" stroke-width="1" stroke-linecap="butt" stroke-linejoin="miter" stroke-miterlimit="10" stroke-dasharray="" stroke-dashoffset="0" font-family="none" font-weight="none" font-size="none" text-anchor="none" style="mix-blend-mode: normal"><g data-paper-data="{&quot;isGlobalGroup&quot;:true,&quot;bounds&quot;:{&quot;x&quot;:132.1433305725147,&quot;y&quot;:115.53577259698102,&quot;width&quot;:285.7133388549705,&quot;height&quot;:238.92845480603796}}"><g data-paper-data="{&quot;stacked&quot;:true,&quot;isPrimaryText&quot;:true}" fill-rule="nonzero" id="element-id-70109"><path d="M173.75275,277.8258v-6.46633l-0.492,0.84343l0.492,-0.84343c-4.28746,-2.46002 -11.10522,-4.14688 -17.00926,-4.14688c-14.7601,0 -24.60016,9.41835 -24.60016,23.54587c0,14.12752 9.84007,23.54587 24.60016,23.54587c6.1149,0 13.07323,-1.68687 17.36069,-4.14688v-12.37037c0,-3.09259 0.98401,-4.5686 2.81145,-4.5686v-1.05429h-12.65151v1.05429c1.82744,0 2.81145,1.47601 2.81145,4.5686v13.07323c-3.30345,0.91372 -6.95833,1.47601 -10.33207,1.47601c-9.55892,0 -15.95496,-8.6452 -15.95496,-21.57786c0,-12.93266 6.39604,-21.57786 15.95496,-21.57786c7.02862,0 12.44065,2.38973 15.18182,7.0989c0.28114,0.492 0.63258,1.05429 0.91372,1.5463z" data-paper-data="{&quot;glyphName&quot;:&quot;G&quot;,&quot;glyphIndex&quot;:0,&quot;firstGlyphOfWord&quot;:true,&quot;word&quot;:1,&quot;line&quot;:1,&quot;firstGlyphOfFirstLine&quot;:true}" fill="#000041" id="element-id-32937"></path><path d="M213.04273,293.42933v-8.01263h-0.84343l-0.28114,0.42172c-0.77315,1.40572 -3.72517,2.38973 -7.30976,2.38973h-7.73148v-18.69613h10.05092c4.21717,0 8.01263,1.75715 9.62921,4.35774l0.492,0.77315h0.77315v-7.0989h-31.5585v1.05429c1.82744,0 2.81145,1.47601 2.81145,4.5686v35.14309c0,3.09259 -0.98401,4.5686 -2.81145,4.5686v1.05429h31.62878l0.21086,-0.98401c0.28114,-1.82744 0.70286,-4.28746 1.05429,-6.1149h-0.77315l-0.63258,0.77315c-2.10859,2.60059 -6.18518,4.35774 -10.40236,4.35774h-10.47264v-21.78872h7.73148c3.5846,0 6.46633,1.12458 7.30976,2.74116l0.28114,0.492z" data-paper-data="{&quot;glyphName&quot;:&quot;E&quot;,&quot;glyphIndex&quot;:1,&quot;word&quot;:1,&quot;line&quot;:1}" fill="#000041" id="element-id-58536"></path><path d="M253.10585,277.54465v-7.02862c-3.44402,-1.96801 -8.1532,-3.30345 -11.87837,-3.30345c-8.99663,0 -15.04124,5.62289 -15.04124,14.05724c0,5.27146 4.63889,10.26178 11.66751,12.51094c7.59091,2.38973 12.65151,6.6069 12.65151,10.47264c0,4.84975 -3.86574,8.08291 -9.62921,8.08291c-0.98401,0 -2.0383,-0.07029 -3.09259,-0.21086c-4.0766,-0.70286 -7.94234,-3.23316 -9.84007,-6.53662c-0.28114,-0.492 -0.63258,-1.05429 -0.91372,-1.5463h-0.91372v7.02862c3.44402,1.96801 9.34806,3.30345 14.83038,3.30345c9.1372,0 15.18182,-5.34175 15.18182,-13.28409c0,-5.62289 -4.84975,-10.96464 -12.15951,-13.28409c-7.38005,-2.31944 -12.30008,-6.18518 -12.30008,-9.55892c0,-5.41204 3.72517,-9.06692 9.27778,-9.06692c0,0 2.95202,0.28114 2.88173,0.42172c2.67088,0.63258 5.48232,2.88173 7.02862,5.62289c0.42172,0.70286 0.98401,1.68687 1.40572,2.38973z" data-paper-data="{&quot;glyphName&quot;:&quot;S&quot;,&quot;glyphIndex&quot;:2,&quot;word&quot;:1,&quot;line&quot;:1}" fill="#000041" id="element-id-77311"></path><path d="M274.262,313.9529h13.49495v-1.05429c-1.82744,0 -2.81145,-1.47601 -2.81145,-4.5686v-38.79797h7.23948c3.37374,0 6.95833,1.96801 8.92635,4.84975l0.63258,0.84343h0.84343c-0.21086,-2.0383 -0.42172,-4.70917 -0.63258,-6.67719l-0.07029,-0.98401h-41.74999l-0.07029,0.98401c-0.21086,1.96801 -0.42172,4.63889 -0.63258,6.67719h0.84343l0.63258,-0.84343c1.96801,-2.88173 5.55261,-4.84975 8.92635,-4.84975h7.23948v38.79797c0,3.09259 -0.98401,4.5686 -2.81145,4.5686z" data-paper-data="{&quot;glyphName&quot;:&quot;T&quot;,&quot;glyphIndex&quot;:3,&quot;word&quot;:1,&quot;line&quot;:1}" fill="#000041" id="element-id-33515"></path><path d="M319.03429,312.8986c-1.82744,0 -2.81145,-1.47601 -2.81145,-4.5686v-35.14309c0,-3.09259 0.98401,-4.5686 2.81145,-4.5686v-1.05429h-13.42466v1.05429c1.82744,0 2.81145,1.47601 2.81145,4.5686v35.14309c0,3.09259 -0.98401,4.5686 -2.81145,4.5686v1.05429h13.42466z" data-paper-data="{&quot;glyphName&quot;:&quot;I&quot;,&quot;glyphIndex&quot;:4,&quot;word&quot;:1,&quot;line&quot;:1}" fill="#000041" id="element-id-4986"></path><path d="M333.72411,290.75846c0,-11.66751 4.99032,-21.57786 14.68981,-21.57786c9.62921,0 14.61953,9.91035 14.61953,21.57786c0,11.66751 -4.99032,21.57786 -14.61953,21.57786c-9.69949,0 -14.68981,-9.91035 -14.68981,-21.57786zM325.07891,290.75846c0,12.7218 7.94234,23.54587 23.33501,23.54587c15.32239,0 23.26473,-10.82407 23.26473,-23.54587c0,-12.7218 -7.94234,-23.54587 -23.26473,-23.54587c-15.39267,0 -23.33501,10.82407 -23.33501,23.54587z" data-paper-data="{&quot;glyphName&quot;:&quot;O&quot;,&quot;glyphIndex&quot;:5,&quot;word&quot;:1,&quot;line&quot;:1}" fill="#000041" id="element-id-14781"></path><path d="M377.93412,268.61831c1.82744,0 2.81145,1.47601 2.81145,4.5686v35.14309c0,3.09259 -0.98401,4.5686 -2.81145,4.5686v1.05429h7.94234v-1.05429c-1.82744,0 -2.81145,-1.47601 -2.81145,-4.5686v-33.87794c9.76978,13.63552 19.53956,27.27104 29.30934,40.90656h2.67088v-42.17171c0,-3.09259 0.98401,-4.5686 2.81145,-4.5686v-1.05429h-7.94234v1.05429c1.82744,0 2.81145,1.47601 2.81145,4.5686v29.44991l-25.09217,-35.07281h-9.76978z" data-paper-data="{&quot;glyphName&quot;:&quot;N&quot;,&quot;glyphIndex&quot;:6,&quot;lastGlyphOfWord&quot;:true,&quot;word&quot;:1,&quot;line&quot;:1,&quot;lastGlyphOfFirstLine&quot;:true}" fill="#000041" id="element-id-31939"></path><path d="M149.59112,340.17627v-5.2206h-0.54954l-0.18318,0.27477c-0.50374,0.91589 -2.42712,1.55702 -4.76265,1.55702h-5.03742v-12.1814h6.54865c2.74768,0 5.2206,1.14487 6.27388,2.83927l0.32056,0.50374h0.50374v-4.62527h-20.56184v0.68692c1.19066,0 1.83179,0.96169 1.83179,2.97666v22.89737c0,2.01497 -0.64113,2.97666 -1.83179,2.97666v0.68692h20.60763l0.13738,-0.64113c0.18318,-1.19066 0.45795,-2.79348 0.68692,-3.98414h-0.50374l-0.41215,0.50374c-1.37384,1.69441 -4.02994,2.83927 -6.77762,2.83927h-6.82342v-14.19637h5.03742c2.33553,0 4.21312,0.73272 4.76265,1.78599l0.18318,0.32056z" data-paper-data="{&quot;glyphName&quot;:&quot;E&quot;,&quot;glyphIndex&quot;:7,&quot;firstGlyphOfWord&quot;:true,&quot;word&quot;:2,&quot;line&quot;:2,&quot;firstGlyphOfSecondLine&quot;:true}" fill="#000041" id="element-id-5687"></path><path d="M175.69412,329.82666v-4.57947c-2.24394,-1.28225 -5.31219,-2.15235 -7.73931,-2.15235c-5.86173,0 -9.80007,3.66358 -9.80007,9.15895c0,3.4346 3.02245,6.68603 7.60193,8.15146c4.94583,1.55702 8.24305,4.3047 8.24305,6.82342c0,3.15984 -2.51871,5.26639 -6.27388,5.26639c-0.64113,0 -1.32805,-0.04579 -2.01497,-0.13738c-2.65609,-0.45795 -5.1748,-2.10656 -6.41126,-4.25891c-0.18318,-0.32056 -0.41215,-0.68692 -0.59533,-1.00748h-0.59533v4.57947c2.24394,1.28225 6.0907,2.15235 9.66269,2.15235c5.95332,0 9.89166,-3.4804 9.89166,-8.6552c0,-3.66358 -3.15984,-7.14398 -7.92249,-8.6552c-4.80845,-1.51123 -8.01408,-4.02994 -8.01408,-6.22808c0,-3.52619 2.42712,-5.90752 6.0449,-5.90752c0,0 1.92338,0.18318 1.87758,0.27477c1.7402,0.41215 3.57199,1.87758 4.57947,3.66358c0.27477,0.45795 0.64113,1.09907 0.91589,1.55702z" data-paper-data="{&quot;glyphName&quot;:&quot;S&quot;,&quot;glyphIndex&quot;:8,&quot;word&quot;:2,&quot;line&quot;:2}" fill="#000041" id="element-id-6926"></path><path d="M189.47834,353.54833h8.79259v-0.68692c-1.19066,0 -1.83179,-0.96169 -1.83179,-2.97666v-25.27869h4.71686c2.19815,0 4.53368,1.28225 5.81593,3.15984l0.41215,0.54954h0.54954c-0.13738,-1.32805 -0.27477,-3.06825 -0.41215,-4.3505l-0.04579,-0.64113h-27.20207l-0.04579,0.64113c-0.13738,1.28225 -0.27477,3.02245 -0.41215,4.3505h0.54954l0.41215,-0.54954c1.28225,-1.87758 3.61778,-3.15984 5.81593,-3.15984h4.71686v25.27869c0,2.01497 -0.64113,2.97666 -1.83179,2.97666z" data-paper-data="{&quot;glyphName&quot;:&quot;T&quot;,&quot;glyphIndex&quot;:9,&quot;word&quot;:2,&quot;line&quot;:2}" fill="#000041" id="element-id-85950"></path><path d="M235.31886,323.32381h-5.81593v0.68692h0.32056c1.05328,0 1.78599,1.19066 1.87758,3.02245l-0.04579,17.402c0,4.48788 -2.38133,7.51034 -8.47203,7.51034c-4.99163,0 -6.915,-2.93086 -6.915,-7.37295v-17.63097c0,-2.01497 0.64113,-2.97666 1.83179,-2.97666v-0.68692h-8.74679v0.68692c1.19066,0 1.83179,0.96169 1.83179,2.97666v16.62349c0,6.0907 3.15984,10.16643 11.21971,10.16643c7.7851,0 10.80756,-3.52619 10.80756,-8.79259v-17.53938c0,-2.06076 0.73272,-3.4346 1.78599,-3.4346h0.32056z" data-paper-data="{&quot;glyphName&quot;:&quot;U&quot;,&quot;glyphIndex&quot;:10,&quot;word&quot;:2,&quot;line&quot;:2}" fill="#000041" id="element-id-43021"></path><path d="M240.44787,324.01073c1.19066,0 1.83179,0.96169 1.83179,2.97666v22.89737c0,2.01497 -0.64113,2.97666 -1.83179,2.97666v0.68692h13.46365c8.92997,0 14.88329,-6.0449 14.88329,-15.11226c0,-9.06736 -6.59444,-15.11226 -16.5319,-15.11226h-11.81504zM247.36288,352.26608v-27.66002h4.90004c6.86921,0 11.44868,5.54116 11.44868,13.83001c0,8.28885 -3.93835,13.83001 -9.80007,13.83001z" data-paper-data="{&quot;glyphName&quot;:&quot;D&quot;,&quot;glyphIndex&quot;:11,&quot;word&quot;:2,&quot;line&quot;:2}" fill="#000041" id="element-id-44221"></path><path d="M281.66313,352.86141c-1.19066,0 -1.83179,-0.96169 -1.83179,-2.97666v-22.89737c0,-2.01497 0.64113,-2.97666 1.83179,-2.97666v-0.68692h-8.74679v0.68692c1.19066,0 1.83179,0.96169 1.83179,2.97666v22.89737c0,2.01497 -0.64113,2.97666 -1.83179,2.97666v0.68692h8.74679z" data-paper-data="{&quot;glyphName&quot;:&quot;I&quot;,&quot;glyphIndex&quot;:12,&quot;word&quot;:2,&quot;line&quot;:2}" fill="#000041" id="element-id-40154"></path><path d="M302.8203,353.54833h9.43371v-0.68692c-1.14487,0 -2.10656,-0.96169 -2.93086,-2.79348l-11.63186,-27.43105h-1.28225l-9.93746,27.52263c-0.73272,1.83179 -1.64861,2.74768 -2.88507,2.74768v0.68692h5.99911v-0.68692h-0.36636c-1.23646,0 -1.60282,-1.32805 -0.96169,-3.34302l2.28974,-6.59444h10.25802c0.91589,2.33553 1.92338,4.71686 2.83927,7.00659c0.73272,1.78599 0.50374,2.97666 -0.59533,2.97666h-0.32056zM300.30159,341.6875h-9.29633l4.25891,-12.27299z" data-paper-data="{&quot;glyphName&quot;:&quot;A&quot;,&quot;glyphIndex&quot;:13,&quot;word&quot;:2,&quot;line&quot;:2}" fill="#000041" id="element-id-22640"></path><path d="M314.45216,324.01073c1.19066,0 1.83179,0.96169 1.83179,2.97666v22.89737c0,2.01497 -0.64113,2.97666 -1.83179,2.97666v0.68692h5.1748v-0.68692c-1.19066,0 -1.83179,-0.96169 -1.83179,-2.97666v-22.07306c6.36547,8.88418 12.73094,17.76836 19.0964,26.65253h1.7402v-27.47684c0,-2.01497 0.64113,-2.97666 1.83179,-2.97666v-0.68692h-5.1748v0.68692c1.19066,0 1.83179,0.96169 1.83179,2.97666v19.18799l-16.34872,-22.85157h-6.36547z" data-paper-data="{&quot;glyphName&quot;:&quot;N&quot;,&quot;glyphIndex&quot;:14,&quot;word&quot;:2,&quot;line&quot;:2}" fill="#000041" id="element-id-26691"></path><path d="M351.91225,353.54833h8.79259v-0.68692c-1.19066,0 -1.83179,-0.96169 -1.83179,-2.97666v-25.27869h4.71686c2.19815,0 4.53368,1.28225 5.81593,3.15984l0.41215,0.54954h0.54954c-0.13738,-1.32805 -0.27477,-3.06825 -0.41215,-4.3505l-0.04579,-0.64113h-27.20207l-0.04579,0.64113c-0.13738,1.28225 -0.27477,3.02245 -0.41215,4.3505h0.54954l0.41215,-0.54954c1.28225,-1.87758 3.61778,-3.15984 5.81593,-3.15984h4.71686v25.27869c0,2.01497 -0.64113,2.97666 -1.83179,2.97666z" data-paper-data="{&quot;glyphName&quot;:&quot;T&quot;,&quot;glyphIndex&quot;:15,&quot;word&quot;:2,&quot;line&quot;:2}" fill="#000041" id="element-id-17569"></path><path d="M389.7845,340.17627v-5.2206h-0.54954l-0.18318,0.27477c-0.50374,0.91589 -2.42712,1.55702 -4.76265,1.55702h-5.03742v-12.1814h6.54865c2.74768,0 5.2206,1.14487 6.27388,2.83927l0.32056,0.50374h0.50374v-4.62527h-20.56184v0.68692c1.19066,0 1.83179,0.96169 1.83179,2.97666v22.89737c0,2.01497 -0.64113,2.97666 -1.83179,2.97666v0.68692h20.60763l0.13738,-0.64113c0.18318,-1.19066 0.45795,-2.79348 0.68692,-3.98414h-0.50374l-0.41215,0.50374c-1.37384,1.69441 -4.02994,2.83927 -6.77762,2.83927h-6.82342v-14.19637h5.03742c2.33553,0 4.21312,0.73272 4.76265,1.78599l0.18318,0.32056z" data-paper-data="{&quot;glyphName&quot;:&quot;E&quot;,&quot;glyphIndex&quot;:16,&quot;word&quot;:2,&quot;line&quot;:2}" fill="#000041" id="element-id-11775"></path><path d="M415.8875,329.82666v-4.57947c-2.24394,-1.28225 -5.31219,-2.15235 -7.73931,-2.15235c-5.86173,0 -9.80007,3.66358 -9.80007,9.15895c0,3.4346 3.02245,6.68603 7.60193,8.15146c4.94583,1.55702 8.24305,4.3047 8.24305,6.82342c0,3.15984 -2.51871,5.26639 -6.27388,5.26639c-0.64113,0 -1.32805,-0.04579 -2.01497,-0.13738c-2.65609,-0.45795 -5.1748,-2.10656 -6.41126,-4.25891c-0.18318,-0.32056 -0.41215,-0.68692 -0.59533,-1.00748h-0.59533v4.57947c2.24394,1.28225 6.0907,2.15235 9.66269,2.15235c5.95332,0 9.89166,-3.4804 9.89166,-8.6552c0,-3.66358 -3.15984,-7.14398 -7.92249,-8.6552c-4.80845,-1.51123 -8.01408,-4.02994 -8.01408,-6.22808c0,-3.52619 2.42712,-5.90752 6.0449,-5.90752c0,0 1.92338,0.18318 1.87758,0.27477c1.7402,0.41215 3.57199,1.87758 4.57947,3.66358c0.27477,0.45795 0.64113,1.09907 0.91589,1.55702z" data-paper-data="{&quot;glyphName&quot;:&quot;S&quot;,&quot;glyphIndex&quot;:17,&quot;lastGlyphOfWord&quot;:true,&quot;word&quot;:2,&quot;line&quot;:2,&quot;lastGlyphOfSecondLine&quot;:true}" fill="#000041" id="element-id-2196"></path></g><g data-paper-data="{&quot;fillRule&quot;:&quot;evenodd&quot;,&quot;fillRuleOriginal&quot;:&quot;nonzero&quot;,&quot;isIcon&quot;:true,&quot;iconStyle&quot;:&quot;standalone&quot;,&quot;selectedEffects&quot;:{&quot;container&quot;:&quot;icon_6de5f57a-2879-4a15-b7f4-0f634a0b2dc8&quot;,&quot;transformation&quot;:&quot;&quot;,&quot;pattern&quot;:&quot;&quot;},&quot;bounds&quot;:{&quot;x&quot;:197.35336186254372,&quot;y&quot;:115.53577259698102,&quot;width&quot;:155.29327627491253,&quot;height&quot;:125.61296123350266},&quot;widthRatioIconToContainer&quot;:0.5090787297786699,&quot;heightRatioIconToContainer&quot;:0.34060993144800533,&quot;relativeBoundsIconToContainer&quot;:{&quot;top&quot;:-0.21338482714228477,&quot;left&quot;:-0.018798651053961103},&quot;iconType&quot;:&quot;initial&quot;,&quot;initialText&quot;:&quot;GE&quot;,&quot;rawInitialId&quot;:789,&quot;monogramSpecial&quot;:&quot;wreath-icon-container&quot;,&quot;suitableAsStandaloneIcon&quot;:true}" fill-rule="evenodd" id="element-id-39098"><path d="M204.49594,116.56101c-0.14493,-0.38997 -0.58149,-0.3685 -1.01628,-0.20933c0.55645,0.55657 -0.41688,1.20601 -0.85703,0.7336c-0.33279,-0.3578 -0.24154,-1.62635 1.28288,-1.54584c7.77594,0.40616 6.44833,9.36827 4.48198,14.25473c-3.79313,-1.83759 -6.36424,-6.42153 -3.89154,-13.23316zM346.52034,116.35168c-0.43482,-0.15918 -0.87306,-0.18064 -1.01624,0.20933c2.47274,6.81163 -0.09846,11.39387 -3.8915,13.23316c-1.96648,-4.88646 -3.29408,-13.84857 4.48192,-14.25473c1.52436,-0.08051 1.61567,1.18618 1.28288,1.54584c-0.4401,0.47241 -1.41348,-0.17703 -0.85706,-0.7336zM327.71215,117.60598c1.19327,0.29133 1.84908,1.90452 2.62865,3.82177c1.46597,3.6056 3.36924,8.28661 10.10524,7.27859c-1.58524,-6.99767 -6.42339,-10.48121 -11.11108,-11.30069c-2.26868,-0.50641 -3.04173,-0.35966 -2.3134,0.39895c0.57428,0.3345 0.81218,0.26664 0.69059,-0.19862zM222.28788,117.60598c-0.12159,0.46526 0.11461,0.53328 0.69059,0.19862c0.72832,-0.7569 -0.04286,-0.90536 -2.3134,-0.39895c-4.68768,0.81948 -9.52576,4.30473 -11.11102,11.30069c6.73594,1.00801 8.63921,-3.673 10.10503,-7.27844l0.00016,-0.00016c0.77957,-1.91725 1.43537,-3.53044 2.62865,-3.82177zM336.02841,126.29262c1.86786,-0.2362 2.92541,0.37224 3.20447,1.83044c-4.15456,-0.14505 -6.97609,-2.68922 -8.62048,-7.63825c2.07736,4.09011 3.86836,6.02616 5.41601,5.80782zM213.97161,126.29262c1.54952,0.22005 3.33865,-1.7177 5.41601,-5.80782c-1.6444,4.94904 -4.46592,7.49321 -8.62048,7.63825c0.27912,-1.46007 1.33476,-2.06835 3.20447,-1.83044zM219.65239,127.78126c-0.51713,0.42411 -0.74976,0.40081 -0.72646,-0.04659c-1.10941,0.49368 -1.39966,2.14786 -1.74503,4.11651c-0.64959,3.70436 -1.49485,8.52281 -8.36222,8.81957c0.02505,-6.94565 4.04184,-11.19338 8.44514,-12.8412l0.00714,-0.00714c2.14352,-0.8875 2.90927,-0.92322 2.38142,-0.04115zM332.72906,127.82428l0.00714,0.00714c4.40334,1.64595 8.42016,5.89369 8.44329,12.8412c-6.86583,-0.29692 -7.71093,-5.1149 -8.36037,-8.81926c-0.34537,-1.96881 -0.63546,-3.62315 -1.74503,-4.11683c0.02329,0.44554 -0.20933,0.47054 -0.72646,0.04659c-0.52784,-0.88222 0.23791,-0.84821 2.38142,0.04115zM201.20379,130.0268c-0.21292,-0.32751 -0.63696,-0.22378 -1.0288,-0.00901c0.65484,0.44367 -0.17355,1.222 -0.70139,0.85163c-0.42583,-0.29878 -0.58686,-1.49579 0.93398,-1.70155c7.71868,-1.04668 8.38964,7.74556 7.48965,12.74647c-4.17066,-1.09513 -7.68826,-4.95618 -6.69345,-11.88755zM348.79632,130.0268c0.99295,6.93136 -2.52289,10.79241 -6.69345,11.88755c-0.89821,-5.00091 -0.22906,-13.79315 7.48964,-12.74647c1.52079,0.20577 1.35804,1.40276 0.93393,1.70155c-0.52784,0.37038 -1.35617,-0.40795 -0.7013,-0.85163c-0.39196,-0.21477 -0.81591,-0.31665 -1.02882,0.00901zM270.35659,133.91349v5.8749h-0.83019c-0.25546,-0.44693 -0.57474,-0.95785 -0.83019,-1.40478c-2.49044,-4.27848 -7.40749,-6.4498 -13.7933,-6.4498c-8.68477,0 -14.49585,7.85458 -14.49585,19.60453c0,11.74996 5.81108,19.60453 14.49585,19.60453c3.06518,0 6.38582,-0.51091 9.38717,-1.34111v-11.8776c0,-2.80972 -0.89403,-4.15084 -2.55442,-4.15084v-0.95785h11.4945v0.95785c-1.66024,0 -2.55426,1.34111 -2.55426,4.15084v11.23904c-3.89538,2.23514 -10.21736,3.76772 -15.77298,3.76772c-13.41035,0 -22.35043,-8.55713 -22.35043,-21.39258c0,-12.83545 8.94008,-21.39243 22.35043,-21.39243c5.36399,0 11.55832,1.53259 15.4537,3.76757zM306.05324,146.68512v7.27984h-0.76621l-0.25546,-0.44693c-0.76637,-1.46876 -3.38446,-2.49044 -6.64127,-2.49044h-7.02438v19.79601h9.51482c3.83155,0 7.5353,-1.59642 9.45099,-3.9592l0.57474,-0.70255h0.70255c-0.31928,1.6604 -0.70255,3.89538 -0.95801,5.55577l-0.19148,0.89403h-28.73625v-0.95801c1.6604,0 2.55426,-1.34096 2.55426,-4.15068v-31.92908c0,-2.80987 -0.89387,-4.15084 -2.55426,-4.15084v-0.95785h28.67243v6.44964h-0.70255l-0.44693,-0.70239c-1.46876,-2.36279 -4.91705,-3.9592 -8.7486,-3.9592h-9.13171v16.98629h7.02438c3.25681,0 5.93888,-0.89403 6.64127,-2.17131l0.25546,-0.38311zM212.64939,137.56117c-1.88583,0.13417 -2.80371,0.89806 -2.7554,2.34384c4.06146,-0.90893 6.30343,-3.84863 6.83127,-8.8674c-1.16843,4.25302 -2.49416,6.45368 -4.07588,6.52356zM337.35058,137.56117c-1.58166,-0.06988 -2.9074,-2.26883 -4.07583,-6.52356c0.52784,5.01877 2.76981,7.95847 6.8312,8.8674c0.04845,-1.44578 -0.86949,-2.20967 -2.75537,-2.34384zM218.36051,138.59713c-0.42224,0.47939 -0.64757,0.51883 -0.72817,0.0733c-0.98984,0.66466 -0.94294,2.287 -0.88719,4.21187c0.10545,3.64566 0.24241,8.37683 -6.57383,9.74217c-1.30075,-6.54313 1.84649,-11.22724 5.85793,-13.55866c1.91445,-1.247 2.68564,-1.38118 2.33126,-0.46867zM331.63951,138.59884c-0.35438,-0.91421 0.41681,-0.77833 2.33126,0.46883c4.01138,2.33126 7.15685,7.01553 5.85797,13.56052c-6.81629,-1.36782 -6.67932,-6.09899 -6.57387,-9.7445c0.05575,-1.9247 0.10265,-3.54674 -0.88719,-4.2114c-0.0806,0.44538 -0.30593,0.40609 -0.72817,-0.07345zM216.13298,142.21128c-0.25577,4.27445 -1.1647,6.56642 -2.72493,6.90108c-1.86439,0.39709 -2.63376,1.28645 -2.29916,2.63719c3.8844,-1.5065 5.5465,-4.6501 5.0241,-9.53827zM333.86704,142.21128c-0.52241,4.8863 1.13799,8.03177 5.02405,9.53827c0.33466,-1.35074 -0.43466,-2.24011 -2.29912,-2.63719c-1.55837,-0.33279 -2.4673,-2.62476 -2.72493,-6.90108zM340.51577,153.93778c4.3656,-0.39538 8.64906,-3.51398 8.98729,-10.20028c0.27549,-0.26835 0.67087,-0.09846 1.05382,0.1556c-0.76047,0.32394 -0.06802,1.19343 0.53669,0.91437c0.46339,-0.21477 0.8625,-1.30431 -0.63686,-1.73742c-7.50408,-2.16495 -9.87649,6.0333 -9.94094,10.86773zM198.90642,144.80747c0.60476,0.27906 1.29718,-0.59042 0.53677,-0.91437c0.3811,-0.25406 0.77832,-0.42395 1.05385,-0.1556c0.33815,6.68631 4.62155,9.8032 8.98722,10.20028c-0.06441,-4.83443 -2.43691,-13.03268 -9.94088,-10.86758c-1.49758,0.43296 -1.10038,1.52436 -0.63696,1.73726zM337.5242,165.4138c2.27054,-7.62024 -1.10041,-13.33674 -5.71837,-16.36232c-2.17923,-1.60667 -3.08816,-1.84287 -2.75894,-0.71575c0.4401,0.63701 0.72289,0.68174 0.87135,0.15576c1.11081,0.84945 0.88191,2.74357 0.61015,4.99175c-0.51899,4.29029 -1.19343,9.86889 6.99581,11.93056zM220.08365,148.49149c0.14846,0.52784 0.43109,0.48312 0.87135,-0.15576c0.32922,-1.12712 -0.57971,-0.88921 -2.75909,0.71575c-4.61966,3.02558 -7.98878,8.74208 -5.71827,16.36232c8.18635,-2.06137 7.51253,-7.6381 6.99416,-11.92823c-0.27176,-2.24896 -0.50067,-4.14431 0.61185,-4.99408zM216.04167,161.08034c1.86445,-0.49197 2.72322,-3.23663 2.60333,-8.30198c1.11299,5.72193 -0.5617,9.53843 -5.14393,11.53876c-0.54757,-1.58353 0.3185,-2.65521 2.5406,-3.23678zM331.35502,152.77836c-0.11989,5.06536 0.73889,7.81001 2.60333,8.30198c2.22209,0.58328 3.08816,1.65511 2.5406,3.23678c-4.58224,-2.0022 -6.25692,-5.81853 -5.14393,-11.53876zM198.53068,154.79127c8.94786,-3.013 12.66049,6.52527 13.24736,12.20419c-5.37481,-0.20933 -10.89812,-3.616 -11.99491,-11.43129c-0.37573,-0.31835 -0.85345,-0.09659 -1.27213,0.21291c0.95544,0.33637 0.18787,1.39748 -0.56897,1.10941c-0.5976,-0.2272 -1.16836,-1.50293 0.58865,-2.09522zM338.22193,166.99546c0.58872,-5.67892 4.29961,-15.21719 13.24745,-12.20419c1.75652,0.59229 1.1866,1.86786 0.58856,2.09693c-0.75674,0.28807 -1.52436,-0.77476 -0.569,-1.10926c-0.41867,-0.3095 -0.89449,-0.53141 -1.27201,-0.21291c-1.09683,7.81343 -6.61829,11.22009 -11.99501,11.42943zM329.42985,160.50063c4.05424,3.54985 6.34808,9.44354 2.5979,16.37847c-7.80799,-3.18911 -6.06218,-8.38553 -4.71921,-12.38277c0.70394,-2.09553 1.29717,-3.86137 0.34459,-4.83475c-0.24164,0.4651 -0.53328,0.38823 -0.85706,-0.26121c-0.11274,-1.11827 0.77119,-0.76233 2.63377,1.10025zM223.20395,159.40209c-0.32208,0.64773 -0.61372,0.7246 -0.85706,0.26121c-0.95242,0.97291 -0.3595,2.73767 0.34429,4.83242l0.00016,0.00078c1.34298,3.99663 3.08925,9.19398 -4.71905,12.38448c-3.75017,-6.93509 -1.45634,-12.82878 2.5979,-16.37847c1.86445,-1.86259 2.74651,-2.21868 2.63377,-1.10041zM220.70451,172.21642c-2.12379,0.89465 -2.7608,2.04149 -1.90374,3.45854c4.1867,-2.58361 5.15465,-6.46439 2.93427,-11.72294c1.07168,4.76657 0.74618,7.52008 -1.03053,8.2644zM329.29552,172.21642c-1.77656,-0.74432 -2.1022,-3.49782 -1.03053,-8.2644c-2.22038,5.25854 -1.25244,9.13932 2.93427,11.72294c0.85893,-1.41519 0.22191,-2.56203 -1.90374,-3.45854zM202.01071,168.75431c8.33238,-4.11154 13.88251,4.39433 15.5752,9.72975c-5.39635,0.59042 -11.5584,-1.90374 -14.18497,-9.17503c-0.42585,-0.25049 -0.85525,0.02143 -1.21667,0.37565c1.01628,0.18433 0.46699,1.30073 -0.33637,1.13255c-0.6298,-0.13417 -1.46717,-1.25772 0.16281,-2.06292zM332.41412,178.48406c1.6927,-5.33541 7.24288,-13.84129 15.57514,-9.72975c1.63182,0.8052 0.79262,1.93061 0.1629,2.06121c-0.80162,0.16989 -1.35276,-0.94838 -0.33637,-1.13255c-0.36152,-0.35251 -0.78904,-0.6263 -1.21672,-0.37581c-2.62647,7.27316 -8.78867,9.76732 -14.18496,9.1769zM224.69089,187.68069c7.54151,-3.76664 5.19052,-8.67981 3.38493,-12.45266l-0.00016,-0.00031c-0.94558,-1.97595 -1.74146,-3.6393 -0.88703,-4.66097c0.29692,0.4384 0.5707,0.33108 0.82305,-0.32549c-0.00372,-1.10585 -0.86778,-0.67459 -2.52289,1.28101c-3.69831,3.76804 -5.31569,9.68502 -0.7979,16.15842zM325.30914,187.68069c4.51779,-6.4734 2.90041,-12.38852 -0.7979,-16.15842c-1.65511,-1.95561 -2.51746,-2.38686 -2.52274,-1.28101c0.25219,0.65471 0.52598,0.76218 0.8229,0.32549c0.85443,1.02105 0.05855,2.68409 -0.88703,4.66004c-1.80544,3.773 -4.15689,8.6871 3.38477,12.4539zM226.956,182.89982c1.70683,-0.89465 1.74985,-3.57842 0.10917,-8.1338c2.84653,4.92218 2.30269,8.79581 -1.67298,11.66035c-0.99295,-1.31689 -0.47241,-2.49945 1.56381,-3.52655zM323.04403,182.89982c2.03791,1.02711 2.55861,2.21153 1.56381,3.52655c-3.97566,-2.86454 -4.52136,-6.73817 -1.67298,-11.66035c-1.64067,4.55537 -1.59952,7.23931 0.10917,8.1338zM234.73914,179.33211c-0.12718,0.73003 -0.3991,0.88207 -0.8142,0.48141c-0.68655,1.18411 0.48747,2.76018 1.88386,4.63504l0.00016,0.00031c2.67617,3.59302 6.16918,8.28287 -1.04838,13.41237c-6.07445,-5.976 -5.55732,-12.30621 -2.45131,-16.79c1.36347,-2.28126 2.17752,-2.85739 2.42988,-1.73913zM317.69077,181.07124c3.10602,4.48207 3.62315,10.814 -2.45131,16.79c-7.21803,-5.12996 -3.72486,-9.82013 -1.04869,-13.4133c1.3964,-1.87455 2.5701,-3.45062 1.88433,-4.63441c-0.41696,0.40066 -0.68701,0.24863 -0.81405,-0.48141c0.25219,-1.11827 1.06624,-0.54213 2.42972,1.73913zM325.54006,189.28378c2.24896,-5.08678 8.77251,-12.92879 16.63781,-8.33599c1.5388,0.89821 0.57614,1.93247 -0.05001,2.0112c-0.83377,0.10545 -1.25788,-1.00382 -0.2362,-1.11299c-0.29707,-0.3668 -0.7013,-0.66373 -1.17013,-0.45268c-3.39953,6.89922 -9.8192,8.87625 -15.18147,7.89045zM207.82209,180.94778c7.86536,-4.5928 14.38891,3.2492 16.63787,8.33599c-5.36228,0.9858 -11.78193,-0.99124 -15.18144,-7.89045c-0.46878,-0.20933 -0.87315,0.08588 -1.17015,0.45268c1.02343,0.10917 0.59939,1.21672 -0.23618,1.11299c-0.62622,-0.07703 -1.58882,-1.11112 -0.0501,-2.0112zM235.24012,196.43348c3.62672,-3.58743 3.42453,-7.70255 -0.57086,-12.31165c2.65707,4.43191 3.16332,7.23217 1.52622,8.41658c-1.95017,1.39733 -2.2634,2.69993 -0.95536,3.89506zM314.75991,196.43348c1.30974,-1.19514 0.99481,-2.49774 -0.95536,-3.89506c-1.6371,-1.18442 -1.13084,-3.98467 1.52622,-8.41658c-3.99538,4.6091 -4.19758,8.72609 -0.57086,12.31165zM307.11823,188.00634c0.569,-1.03954 1.22557,-0.27735 1.96275,2.28483c1.8716,5.15651 0.55642,11.54217 -7.32317,16.01338c-5.87055,-6.74361 -0.96949,-10.55916 2.79218,-13.48753c1.96508,-1.5298 3.61911,-2.81749 3.26427,-4.1541c-0.55471,0.29878 -0.77833,0.07159 -0.69602,-0.65658zM245.45189,192.81872c3.76151,2.92852 8.66257,6.74392 2.79218,13.48768c-7.88145,-4.47306 -9.19662,-10.85873 -7.32332,-16.01353c0.73718,-2.56218 1.39391,-3.32607 1.96291,-2.28483c0.08044,0.72832 -0.14318,0.95552 -0.69602,0.65674c-0.35484,1.33645 1.29903,2.62414 3.26427,4.15394zM332.7845,193.87316c-4.97389,6.55214 -12.15947,7.57008 -17.6219,5.6915c3.40667,-4.93289 11.88755,-11.88397 19.24829,-5.91155c1.44221,1.16827 0.22906,2.07006 -0.46867,2.05391c-0.90008,-0.02143 -1.1237,-1.23629 -0.00714,-1.18799c-0.25592,-0.42224 -0.60657,-0.78718 -1.15057,-0.64586zM215.58915,193.65482c7.36074,-5.97413 15.84162,0.97881 19.24829,5.90984c-5.46244,1.87859 -12.64801,0.86064 -17.6219,-5.68979c-0.54399,-0.14131 -0.89465,0.22378 -1.15057,0.64602c1.11827,-0.0483 0.89465,1.16656 -0.00714,1.18799c-0.69773,0.01615 -1.90902,-0.88564 -0.46867,-2.05407zM301.82755,200.69892c-1.32947,-1.53865 -0.00543,-4.18485 3.9738,-7.95832c-5.39629,3.641 -6.7579,7.64524 -4.13841,12.061c1.68183,-0.87849 1.73369,-2.24725 0.16461,-4.1027zM248.17247,200.70078c-1.56908,1.85358 -1.51722,3.2242 0.16461,4.1027c2.61949,-4.41763 1.25601,-8.42187 -4.13841,-12.06116c3.97737,3.77176 5.3014,6.41982 3.9738,7.95847zM257.00354,200.82844c4.14478,2.48624 9.55131,5.7297 4.57013,12.99805c-8.46286,-3.56414 -10.61709,-9.70831 -9.43811,-14.98828c0.40795,-2.61576 0.95195,-3.44239 1.67468,-2.47087c0.17548,0.71575 -0.03758,0.95536 -0.60828,0.71932c-0.18356,1.3509 1.63679,2.44307 3.80158,3.74179zM296.18978,196.36903c0.72273,-0.97152 1.26673,-0.14489 1.67468,2.47103c1.17898,5.27811 -0.97524,11.42229 -9.43811,14.98828c-4.98119,-7.26974 0.4255,-10.51273 4.57028,-12.99867c2.16463,-1.29825 3.98498,-2.39028 3.80142,-3.74133c-0.57086,0.2362 -0.78376,-0.00357 -0.60828,-0.71932zM260.7722,208.31746c-1.33118,1.99148 -1.08783,3.3298 0.70488,4.01325c2.06121,-4.61624 0.15032,-8.42901 -5.72722,-11.42058c4.46235,3.28678 6.14232,5.7488 5.02234,7.40733zM289.22612,208.31746c-1.12013,-1.65853 0.55999,-4.12055 5.02234,-7.40733c-5.87583,2.99157 -7.78672,6.80433 -5.72737,11.42058c1.79286,-0.68345 2.0362,-2.02177 0.70503,-4.01325zM228.59667,208.55552c-0.69059,0.18061 -2.18467,-0.42597 -1.05926,-1.91819c5.75594,-7.63453 16.40177,-2.7195 21.28093,1.34375c-4.99718,3.13475 -12.6067,3.80391 -19.5668,-1.50837c-0.57971,-0.016 -0.83734,0.43125 -0.97338,0.90893c1.1147,-0.30764 1.22744,0.93766 0.3185,1.17386zM320.74849,206.47272c-6.95822,5.31041 -14.56961,4.64311 -19.5668,1.50837c4.87916,-4.06325 15.52498,-8.97828 21.27906,-1.34375c1.12541,1.49221 -0.37038,2.09708 -1.05926,1.91819c-0.90893,-0.2362 -0.79619,-1.47979 0.3185,-1.17386c-0.13417,-0.47768 -0.39351,-0.92493 -0.97152,-0.90893zM275.00002,220.89031c4.34417,-3.09174 9.0213,-5.16365 12.61401,-5.4643c5.42486,-3.49612 16.6934,-7.18899 21.44911,0.9608c0.92493,1.58524 -0.64416,2.02906 -1.32232,1.77314c-0.87306,-0.32922 -0.58499,-1.54765 0.48669,-1.1164c-0.06973,-0.49026 -0.27006,-0.95552 -0.84806,-1.00909c-6.34808,3.71787 -12.58885,3.35107 -17.16037,1.05553c-0.68345,-0.10374 -1.31145,-0.15203 -1.81957,-0.02671c-3.96852,0.97866 -7.68469,3.1186 -10.814,5.81496c5.13679,4.31374 9.31278,9.98908 9.80491,15.67888c-0.20933,0.59213 -0.50998,1.1147 -0.91608,1.54408c-0.4151,0.43653 -0.95552,0.75503 -1.63182,0.91778c-0.9125,0.22005 -2.10407,0.16647 -3.6393,-0.25406c0.9358,-4.50692 -1.67654,-10.5045 -6.20319,-15.41224c-4.5268,4.90774 -7.13899,10.90531 -6.20505,15.4141c-1.53694,0.42038 -2.72664,0.47582 -3.63915,0.25406c-0.67646,-0.1629 -1.21858,-0.48125 -1.63182,-0.91794c-0.40624,-0.42938 -0.70674,-0.95179 -0.91608,-1.54408c0.49197,-5.6915 4.66812,-11.36685 9.80491,-15.67888c-3.12931,-2.69636 -6.84564,-4.8363 -10.814,-5.81496c-0.50641,-0.12532 -1.13442,-0.07687 -1.81972,0.02687c-4.57137,2.29555 -10.81214,2.66235 -17.16037,-1.05568c-0.57614,0.05373 -0.77646,0.51883 -0.84806,1.00909c1.07184,-0.43109 1.35975,0.78734 0.48669,1.11656c-0.6763,0.25577 -2.24725,-0.1879 -1.32216,-1.77314c4.75741,-8.14994 16.02595,-4.45878 21.45081,-0.96266c3.59271,0.30065 8.26983,2.37257 12.61401,5.4643z" data-paper-data="{&quot;isPathIcon&quot;:true}" fill="#000041" id="element-id-80268"></path></g></g></g><g class="watermark-group" style="opacity:0.040000010281801224"><path class="watermark-path" d="M129.52,370.3a11.88,11.88,0,0,1,2.58,5.58,12,12,0,0,1,.11,3,11.81,11.81,0,0,1-.64,2.93,12.34,12.34,0,0,1-1.41,2.72,11.65,11.65,0,0,1-2.13,2.32,12,12,0,0,1-2.64,1.69,13,13,0,0,1-2.91.9,12.47,12.47,0,0,1-3,.12,12.17,12.17,0,0,1-2.93-.64,11.8,11.8,0,0,1-2.72-1.38,12.19,12.19,0,0,1-4-4.79,11.85,11.85,0,0,1-.89-2.92,12.14,12.14,0,0,1-.13-3,11.54,11.54,0,0,1,.64-2.92,11.67,11.67,0,0,1,3.5-5,11.44,11.44,0,0,1,2.67-1.69,11.64,11.64,0,0,1,2.92-.91,10.71,10.71,0,0,1,3-.12,11.68,11.68,0,0,1,5.66,2,11.7,11.7,0,0,1,2.34,2.12m-1.4,8.76a13,13,0,0,1-1.22,2.32,9.68,9.68,0,0,1-1.81,2,7.44,7.44,0,0,1-2.38,1.37,6.17,6.17,0,0,1-5.11-.46,8.73,8.73,0,0,1-3.85-4.58,6.69,6.69,0,0,1-.34-2.66,6.09,6.09,0,0,1,.77-2.47,7.15,7.15,0,0,1,1.75-2.11,9.58,9.58,0,0,1,1.09-.81,8.23,8.23,0,0,1,1.12-.63,8.14,8.14,0,0,1,1.19-.46,12.71,12.71,0,0,1,1.32-.37l2,2.38a12.83,12.83,0,0,0-1.56.17,7.86,7.86,0,0,0-1.23.32,4.5,4.5,0,0,0-1,.49,6.41,6.41,0,0,0-.93.67,4.49,4.49,0,0,0-1.15,1.39,3.87,3.87,0,0,0-.45,1.58,4.12,4.12,0,0,0,.26,1.63,6.11,6.11,0,0,0,2.36,2.82,4.43,4.43,0,0,0,1.57.53,3.91,3.91,0,0,0,1.62-.17,4.71,4.71,0,0,0,1.57-.89,10.5,10.5,0,0,0,.83-.79,5.71,5.71,0,0,0,.65-.93,10.13,10.13,0,0,0,.54-1.14,12.24,12.24,0,0,0,.44-1.49l2,2.33m-14.46,4.55a8.86,8.86,0,0,0,2.78,2.22,9,9,0,0,0,3.29.94,9.15,9.15,0,0,0,3.39-.37,8.68,8.68,0,0,0,3.11-1.69,8.8,8.8,0,0,0,2.22-2.78,9.15,9.15,0,0,0,1-3.29,8.95,8.95,0,0,0-4.83-8.76,9,9,0,0,0-6.73-.57,9,9,0,0,0-5.33,4.47,8.94,8.94,0,0,0-.57,6.71,8.76,8.76,0,0,0,1.7,3.12"></path><path class="watermark-path" d="M147,349c-.48.12-1.09.31-1.82.57a24.37,24.37,0,0,0-2.4,1A28.35,28.35,0,0,0,140,352a20.72,20.72,0,0,0-2.71,1.94c-.7.59-1.28,1.11-1.74,1.57a15.07,15.07,0,0,0-1.1,1.22,4.09,4.09,0,0,0-.59.92,2.32,2.32,0,0,0-.22.64,1.16,1.16,0,0,0,0,.47,1.83,1.83,0,0,0,.18.29,1.15,1.15,0,0,0,1,.37,5.54,5.54,0,0,0,1.51-.38q.87-.35,1.95-.9l2.26-1.18q1.2-.65,2.49-1.29c.87-.44,1.73-.83,2.59-1.17a18.94,18.94,0,0,1,2.6-.81,9.27,9.27,0,0,1,2.46-.29,6.25,6.25,0,0,1,2.24.49,5.12,5.12,0,0,1,1.89,1.47,6.35,6.35,0,0,1,1.41,2.61,6,6,0,0,1,.09,2.6,8.3,8.3,0,0,1-.9,2.52,17.79,17.79,0,0,1-1.62,2.37,23.92,23.92,0,0,1-2,2.15c-.72.67-1.41,1.29-2.09,1.87a33.79,33.79,0,0,1-5.33,3.7,32.29,32.29,0,0,1-4.91,2.28l-3.61-4.3a21.38,21.38,0,0,0,5.39-1.87,27.2,27.2,0,0,0,5.4-3.56,21.59,21.59,0,0,0,2.38-2.27,8.67,8.67,0,0,0,1.18-1.7,2.32,2.32,0,0,0,.27-1.19,1.34,1.34,0,0,0-.28-.74,1.21,1.21,0,0,0-1-.42,4.32,4.32,0,0,0-1.55.34,15.77,15.77,0,0,0-2,.88c-.72.37-1.48.77-2.27,1.21l-2.45,1.3c-.85.45-1.7.85-2.56,1.21a22.37,22.37,0,0,1-2.54.86,10,10,0,0,1-2.43.32,5.76,5.76,0,0,1-2.2-.45,5,5,0,0,1-1.89-1.45,6.12,6.12,0,0,1-1.31-2.41,6,6,0,0,1-.1-2.41,8.28,8.28,0,0,1,.81-2.38,14.06,14.06,0,0,1,1.49-2.24,22.37,22.37,0,0,1,1.85-2.05q1-1,2-1.77c.7-.59,1.44-1.15,2.23-1.7s1.62-1.06,2.44-1.53,1.63-.91,2.43-1.3,1.58-.75,2.3-1L147,349"></path><path class="watermark-path" d="M186.76,337.57l-10.6-12.63,3.92,18.24-4.66,3.91-17.27-7,10.6,12.63-4.86,4.07-15.09-18,6.59-5.54,18.69,7.52-4.15-19.71,6.57-5.52,15.09,18-4.83,4.05"></path><path class="watermark-path" d="M208.84,313.24l-10,8.42,1.16,4.82L194.56,331l-5.68-25.89,5.42-4.55,24.51,10.09-5.42,4.55-4.55-2m-11.23,3.45,6.57-5.52-8.83-3.87,2.26,9.39"></path><path class="watermark-path" d="M227.49,281.38c-.48.12-1.09.31-1.82.57a24.37,24.37,0,0,0-2.4,1,26.11,26.11,0,0,0-2.7,1.47,20.72,20.72,0,0,0-2.71,1.94c-.7.59-1.28,1.11-1.74,1.57a13.39,13.39,0,0,0-1.1,1.22,4.29,4.29,0,0,0-.59.91,2.48,2.48,0,0,0-.22.65,1.16,1.16,0,0,0,0,.47,1.83,1.83,0,0,0,.18.29,1.15,1.15,0,0,0,1,.37,5.54,5.54,0,0,0,1.51-.38q.87-.34,2-.9l2.26-1.18q1.2-.64,2.49-1.29c.87-.44,1.73-.83,2.59-1.17a18.94,18.94,0,0,1,2.6-.81,9.27,9.27,0,0,1,2.46-.29,6.08,6.08,0,0,1,2.24.49,5.09,5.09,0,0,1,1.89,1.46,6.47,6.47,0,0,1,1.41,2.61,6.07,6.07,0,0,1,.09,2.61,8.3,8.3,0,0,1-.9,2.52,16.32,16.32,0,0,1-1.63,2.36,21.41,21.41,0,0,1-2,2.16c-.72.67-1.41,1.29-2.1,1.86a33.36,33.36,0,0,1-5.32,3.71,31.92,31.92,0,0,1-4.92,2.28l-3.6-4.3a21.38,21.38,0,0,0,5.39-1.87,27.2,27.2,0,0,0,5.4-3.56,21.59,21.59,0,0,0,2.38-2.27,8.67,8.67,0,0,0,1.18-1.7A2.32,2.32,0,0,0,231,293a1.34,1.34,0,0,0-.28-.74,1.21,1.21,0,0,0-1-.42,4.32,4.32,0,0,0-1.55.34,16.54,16.54,0,0,0-2,.88c-.71.37-1.47.77-2.26,1.21l-2.46,1.3c-.84.44-1.7.85-2.55,1.21a24.53,24.53,0,0,1-2.54.86A10,10,0,0,1,214,298a5.76,5.76,0,0,1-2.2-.45,5,5,0,0,1-1.89-1.45,6.12,6.12,0,0,1-1.31-2.41,5.78,5.78,0,0,1-.1-2.41,8,8,0,0,1,.81-2.38,14.61,14.61,0,0,1,1.49-2.25,22.26,22.26,0,0,1,1.85-2q1-1,2-1.77c.7-.59,1.44-1.15,2.23-1.7s1.62-1.06,2.44-1.53,1.63-.91,2.43-1.31,1.58-.74,2.3-1l3.5,4.16"></path><path class="watermark-path" d="M261.64,274.74l-6.29-7.5L243,277.61l6.3,7.5-4.86,4.07-15.09-18,4.85-4.08,5.49,6.55L252,263.3l-5.49-6.55,4.86-4.07,15.09,18-4.86,4.08"></path><path class="watermark-path" d="M272.18,265.9l-15.09-18,4.86-4.08,15.09,18-4.86,4.08"></path><path class="watermark-path" d="M299.65,242.85l-22.51-2.18L287.51,253l-4.85,4.08-15.1-18,5.28-4.43,22.56,2.22L285,224.5l4.83-4.06,15.09,18-5.26,4.42"></path><path class="watermark-path" d="M306.68,205.52a31.88,31.88,0,0,1,5.29-3.66,34.48,34.48,0,0,1,5.14-2.35l3.69,4.39a20.77,20.77,0,0,0-2.37.61,20.47,20.47,0,0,0-2.61,1,25.12,25.12,0,0,0-2.76,1.49,23.9,23.9,0,0,0-2.8,2,20.42,20.42,0,0,0-2.8,2.77,12.77,12.77,0,0,0-1.64,2.52,7,7,0,0,0-.68,2.24,6,6,0,0,0,.66,3.64,8.16,8.16,0,0,0,.94,1.38,9.12,9.12,0,0,0,1.08,1.07,6.39,6.39,0,0,0,1.47.91,6.73,6.73,0,0,0,1.88.48,6.54,6.54,0,0,0,2.28-.18,11.67,11.67,0,0,0,2.74-1.07,19.38,19.38,0,0,0,3.18-2.22c.57-.48,1.06-.92,1.46-1.31a14.57,14.57,0,0,0,1-1.13,11.46,11.46,0,0,0,.81-1.05l.74-1.09-1.82-2.17-5.45,4.57-3.31-3.94,10.31-8.65,7.71,9.19a29,29,0,0,1-1.67,2.43q-1,1.26-2.1,2.52c-.74.84-1.5,1.65-2.3,2.44s-1.58,1.5-2.33,2.14a31,31,0,0,1-3.59,2.61,22.55,22.55,0,0,1-3.64,1.83,15.64,15.64,0,0,1-3.63.89,10.72,10.72,0,0,1-3.49-.15,10.45,10.45,0,0,1-3.28-1.33,12.54,12.54,0,0,1-3-2.67,12,12,0,0,1-2.08-3.44,10.45,10.45,0,0,1-.71-3.5,11.14,11.14,0,0,1,.51-3.51,15.72,15.72,0,0,1,1.56-3.43,21.62,21.62,0,0,1,2.42-3.28,30.3,30.3,0,0,1,3.15-3"></path><path class="watermark-path" d="M336.91,211.59l-15.1-18,4.86-4.08,11.79,14,13.13-11,3.31,3.94-18,15.1"></path><path class="watermark-path" d="M374.54,164.71a12.28,12.28,0,0,1,2.59,4.81,10.44,10.44,0,0,1,0,5,14.62,14.62,0,0,1-2.33,5,25.55,25.55,0,0,1-4.56,4.85,26.07,26.07,0,0,1-5.6,3.67,14.79,14.79,0,0,1-5.38,1.43,10.43,10.43,0,0,1-4.94-.89,13.24,13.24,0,0,1-6.87-8.18,10.48,10.48,0,0,1,0-5,14.51,14.51,0,0,1,2.36-5,25.23,25.23,0,0,1,4.57-4.89,25,25,0,0,1,5.59-3.64,14.45,14.45,0,0,1,5.35-1.43,10.31,10.31,0,0,1,4.93.92,12.22,12.22,0,0,1,4.28,3.38m-4.91,4.11a8.36,8.36,0,0,0-2-1.72,5.5,5.5,0,0,0-2.65-.85,7.72,7.72,0,0,0-3.32.57,14.49,14.49,0,0,0-4,2.52,16.72,16.72,0,0,0-2.38,2.4,10.15,10.15,0,0,0-1.39,2.24,6.71,6.71,0,0,0-.56,2.1,5.69,5.69,0,0,0,.1,1.9,6.21,6.21,0,0,0,.61,1.69,9.85,9.85,0,0,0,1,1.44,10.48,10.48,0,0,0,1.26,1.23,6.67,6.67,0,0,0,1.57.92,6.1,6.1,0,0,0,1.85.41,6.8,6.8,0,0,0,2.15-.2,11.06,11.06,0,0,0,2.45-1,17.67,17.67,0,0,0,2.77-1.94,14.39,14.39,0,0,0,3.18-3.52,7.74,7.74,0,0,0,1.14-3.17,5.54,5.54,0,0,0-.37-2.74,8.52,8.52,0,0,0-1.36-2.3"></path><path class="watermark-path" d="M382.66,141.76A32.3,32.3,0,0,1,388,138.1a34.12,34.12,0,0,1,5.15-2.35l3.69,4.4a19.62,19.62,0,0,0-2.37.6,22.08,22.08,0,0,0-2.61,1,26,26,0,0,0-2.77,1.49,23.9,23.9,0,0,0-2.8,2,21,21,0,0,0-2.8,2.78,13.19,13.19,0,0,0-1.64,2.51,7.29,7.29,0,0,0-.68,2.24,6.36,6.36,0,0,0,.06,2,5.8,5.8,0,0,0,.61,1.68,8.12,8.12,0,0,0,.93,1.38,9.16,9.16,0,0,0,1.08,1.08,6.56,6.56,0,0,0,1.48.9,6,6,0,0,0,1.87.48,6.76,6.76,0,0,0,2.28-.17,12,12,0,0,0,2.74-1.08,18.57,18.57,0,0,0,3.18-2.22c.58-.48,1.06-.92,1.46-1.31s.75-.77,1.05-1.12.57-.72.81-1.06l.73-1.09-1.82-2.17-5.45,4.57-3.3-3.94,10.3-8.65,7.71,9.19a29,29,0,0,1-1.67,2.43q-1,1.26-2.1,2.52c-.73.84-1.5,1.66-2.3,2.44s-1.57,1.5-2.33,2.14a31,31,0,0,1-3.59,2.61,22.15,22.15,0,0,1-3.64,1.83,15.56,15.56,0,0,1-3.62.89,11,11,0,0,1-3.49-.14,10.84,10.84,0,0,1-3.28-1.33,12.82,12.82,0,0,1-3-2.68,12.12,12.12,0,0,1-2.08-3.43A10.71,10.71,0,0,1,375,155a11.18,11.18,0,0,1,.51-3.51,15.51,15.51,0,0,1,1.57-3.43,21.44,21.44,0,0,1,2.42-3.28,30.19,30.19,0,0,1,3.14-3"></path><path class="watermark-path" d="M428.63,119.31a12.26,12.26,0,0,1,2.59,4.82,10.44,10.44,0,0,1,0,5,14.53,14.53,0,0,1-2.34,5,25.29,25.29,0,0,1-4.56,4.86,26,26,0,0,1-5.59,3.67,14.84,14.84,0,0,1-5.38,1.43,10.61,10.61,0,0,1-4.95-.89,12.15,12.15,0,0,1-4.3-3.37,12,12,0,0,1-2.56-4.81,10.48,10.48,0,0,1,0-5,14.39,14.39,0,0,1,2.35-5,27.89,27.89,0,0,1,10.16-8.53,14.49,14.49,0,0,1,5.36-1.43,10.27,10.27,0,0,1,4.92.92,12.21,12.21,0,0,1,4.28,3.37m-4.91,4.12a8.17,8.17,0,0,0-2-1.72,5.58,5.58,0,0,0-2.65-.86,7.86,7.86,0,0,0-3.31.58,14.49,14.49,0,0,0-4,2.52,16.21,16.21,0,0,0-2.38,2.4,9.85,9.85,0,0,0-1.4,2.24,7,7,0,0,0-.56,2.1,6,6,0,0,0,.1,1.9,6.23,6.23,0,0,0,.62,1.69,8.49,8.49,0,0,0,1,1.44,9.18,9.18,0,0,0,1.26,1.23,6.67,6.67,0,0,0,1.57.92,6,6,0,0,0,1.84.41,6.86,6.86,0,0,0,2.16-.2,11.26,11.26,0,0,0,2.45-1,17.62,17.62,0,0,0,2.76-1.94,14.67,14.67,0,0,0,3.19-3.52,7.71,7.71,0,0,0,1.13-3.17,5.53,5.53,0,0,0-.36-2.74,8.55,8.55,0,0,0-1.37-2.3"></path></g><rect data-element-id="element-id-70109" stroke-width="2" fill="transparent" class="invisible-element-box grouping-element" x="132" y="267" width="286" height="87" data-element-name="isPrimaryText"></rect><rect data-element-id="element-id-39098" stroke-width="2" fill="transparent" class="invisible-element-box grouping-element" x="197" y="116" width="155" height="126" data-element-name="isIcon"></rect><rect data-element-id="element-id-80268" stroke-width="2" fill="transparent" class="invisible-element-box individual-element" x="197" y="116" width="155" height="126"></rect><rect data-element-id="element-id-14781" stroke-width="2" fill="transparent" class="invisible-element-box individual-element" x="325" y="267" width="47" height="47"></rect><rect data-element-id="element-id-32937" stroke-width="2" fill="transparent" class="invisible-element-box individual-element" x="132" y="267" width="45" height="47"></rect><rect data-element-id="element-id-33515" stroke-width="2" fill="transparent" class="invisible-element-box individual-element" x="259" y="268" width="43" height="46"></rect><rect data-element-id="element-id-31939" stroke-width="2" fill="transparent" class="invisible-element-box individual-element" x="378" y="268" width="40" height="48"></rect><rect data-element-id="element-id-58536" stroke-width="2" fill="transparent" class="invisible-element-box individual-element" x="186" y="268" width="33" height="46"></rect><rect data-element-id="element-id-77311" stroke-width="2" fill="transparent" class="invisible-element-box individual-element" x="226" y="267" width="30" height="47"></rect><rect data-element-id="element-id-22640" stroke-width="2" fill="transparent" class="invisible-element-box individual-element" x="284" y="323" width="29" height="31"></rect><rect data-element-id="element-id-85950" stroke-width="2" fill="transparent" class="invisible-element-box individual-element" x="180" y="323" width="28" height="30"></rect><rect data-element-id="element-id-44221" stroke-width="2" fill="transparent" class="invisible-element-box individual-element" x="240" y="323" width="28" height="30"></rect><rect data-element-id="element-id-17569" stroke-width="2" fill="transparent" class="invisible-element-box individual-element" x="342" y="323" width="28" height="30"></rect><rect data-element-id="element-id-26691" stroke-width="2" fill="transparent" class="invisible-element-box individual-element" x="314" y="323" width="26" height="31"></rect><rect data-element-id="element-id-43021" stroke-width="2" fill="transparent" class="invisible-element-box individual-element" x="209" y="323" width="26" height="30"></rect><rect data-element-id="element-id-5687" stroke-width="2" fill="transparent" class="invisible-element-box individual-element" x="132" y="323" width="21" height="30"></rect><rect data-element-id="element-id-11775" stroke-width="2" fill="transparent" class="invisible-element-box individual-element" x="372" y="323" width="21" height="30"></rect><rect data-element-id="element-id-6926" stroke-width="2" fill="transparent" class="invisible-element-box individual-element" x="158" y="323" width="20" height="31"></rect><rect data-element-id="element-id-2196" stroke-width="2" fill="transparent" class="invisible-element-box individual-element" x="398" y="323" width="20" height="31"></rect><rect data-element-id="element-id-4986" stroke-width="2" fill="transparent" class="invisible-element-box individual-element" x="306" y="268" width="13" height="46"></rect><rect data-element-id="element-id-40154" stroke-width="2" fill="transparent" class="invisible-element-box individual-element" x="273" y="323" width="9" height="30"></rect></svg>